<svg width="176" height="175" viewBox="0 0 176 175" fill="none" xmlns="http://www.w3.org/2000/svg">
<rect x="0.5" width="175" height="175" rx="87.5" fill="url(#paint0_linear_2_1581)"/>
<g clip-path="url(#clip0_2_1581)">
<path d="M135.5 108.297C135.008 110.377 133.553 111.594 131.824 112.688C122.953 118.303 114.11 123.962 105.281 129.642C103.322 130.902 101.262 131.532 98.9165 131.519C89.3013 131.47 79.6852 131.474 70.0699 131.519C67.9975 131.529 66.0228 131.233 64.0841 130.527C62.3468 129.895 60.5831 129.337 58.8415 128.719C58.3841 128.557 58.0894 128.56 57.7472 128.992C56.9696 129.971 55.893 130.378 54.6474 130.377C51.2775 130.371 47.9068 130.383 44.5369 130.372C42.132 130.364 40.5074 128.754 40.5056 126.37C40.4994 118.145 40.4994 109.922 40.5056 101.697C40.5074 99.3381 42.1092 97.7354 44.4587 97.7292C47.8285 97.7204 51.1993 97.7371 54.5691 97.7213C55.8129 97.7151 56.8905 98.0802 57.6988 99.0408C58.0181 99.4207 58.2891 99.4674 58.7262 99.2659C59.8126 98.7645 61.2754 98.5825 61.9105 97.7539C62.4541 97.0449 62.0724 95.6155 62.075 94.5054C62.082 90.5171 62.0653 86.528 62.0908 82.5398C62.0943 81.9425 61.9281 81.6399 61.3722 81.3426C59.6287 80.412 58.6981 78.9095 58.6884 76.911C58.6717 73.3248 58.6717 69.7376 58.6884 66.1514C58.7016 63.3313 60.8567 61.1841 63.6944 61.1692C67.1874 61.1498 70.6804 61.1648 74.4417 61.1648C73.9122 60.849 73.5902 60.652 73.2648 60.4637C70.4341 58.8214 68.2632 56.654 67.5463 53.3194C66.3245 47.6299 71.1853 42.6072 76.9143 43.6135C80.3528 44.2178 83.0498 46.0941 85.4705 48.47C88.0531 51.0059 90.093 53.9325 91.6921 57.1721C91.7986 57.3876 91.9138 57.5988 92.0932 57.9436C92.2982 57.568 92.4583 57.2944 92.5999 57.012C94.8685 52.4916 97.8689 48.5738 102.106 45.729C104.786 43.9293 107.719 42.9705 110.969 43.8282C115.897 45.1282 118.241 50.6611 115.923 55.4375C114.816 57.7193 112.995 59.3044 110.821 60.5244C110.534 60.6854 110.246 60.8455 109.983 61.1648C110.272 61.1648 110.561 61.1648 110.85 61.1648C114.745 61.1648 118.641 61.156 122.536 61.1683C125.585 61.1771 127.698 63.3093 127.707 66.3775C127.716 69.8098 127.707 73.2412 127.709 76.6735C127.711 78.8515 126.777 80.4507 124.833 81.4763C124.577 81.6118 124.304 82.0102 124.303 82.2882C124.274 88.6576 124.282 95.0261 124.287 101.396C124.287 101.513 124.332 101.631 124.381 101.879C124.912 101.594 125.407 101.365 125.867 101.078C129.85 98.5948 133.411 100.939 134.827 104.183C135.095 104.795 135.28 105.444 135.502 106.076V108.302L135.5 108.297ZM84.1044 128.357C89.2063 128.357 94.3073 128.344 99.4091 128.366C100.686 128.371 101.858 128.079 102.925 127.397C112.345 121.379 121.763 115.359 131.167 109.317C131.582 109.05 131.965 108.608 132.168 108.161C132.722 106.938 132.027 104.947 130.756 103.843C129.759 102.976 128.97 102.961 127.453 103.785C120.893 107.353 114.326 110.909 107.776 114.498C105.808 115.576 103.754 116.135 101.496 116.121C95.0646 116.078 88.6336 116.106 82.2027 116.106C81.9555 116.106 81.7066 116.114 81.4612 116.091C80.6431 116.015 80.1523 115.541 80.0406 114.751C79.928 113.949 80.3044 113.36 81.068 113.094C81.4066 112.976 81.7928 112.957 82.1578 112.956C85.3421 112.946 88.5272 112.966 91.7115 112.946C96.7025 112.914 95.2625 113.388 99.775 110.512C101.133 109.646 101.619 108.462 101.235 107.138C100.814 105.681 99.7794 104.959 98.0905 104.958C93.7311 104.955 89.3717 104.936 85.0122 104.968C83.3295 104.98 81.784 104.586 80.3124 103.79C77.5705 102.308 74.8085 100.863 72.0667 99.382C70.5555 98.5658 69.0461 98.4672 67.4451 99.1314C64.7693 100.242 62.0732 101.307 59.3754 102.365C58.8846 102.558 58.6655 102.788 58.6673 103.359C58.6893 110.47 58.6867 117.582 58.6708 124.693C58.6699 125.214 58.8327 125.435 59.3367 125.598C61.4478 126.28 63.5193 127.09 65.6472 127.711C66.8734 128.068 68.1761 128.31 69.4489 128.329C74.3335 128.399 79.219 128.357 84.1036 128.357H84.1044ZM101.946 112.925C103.572 112.991 104.825 112.509 106.032 111.853C110.802 109.26 115.566 106.656 120.351 104.091C120.959 103.765 121.151 103.397 121.148 102.726C121.124 96.1432 121.133 89.5592 121.133 82.9752V81.9926H93.7337V101.799C95.4077 101.799 97.0104 101.783 98.6122 101.803C101.769 101.84 104.433 104.5 104.517 107.658C104.573 109.785 103.689 111.464 101.946 112.926V112.925ZM90.465 81.9953H65.2804V96.5514C65.5645 96.4599 65.7985 96.408 66.0131 96.313C68.7276 95.1132 71.3331 95.334 73.9069 96.788C76.1095 98.0318 78.4097 99.1067 80.5903 100.387C82.3856 101.44 84.232 101.972 86.3176 101.822C87.6863 101.724 89.0682 101.804 90.465 101.804V81.9962V81.9953ZM99.5349 64.3139C99.5982 64.4915 99.6044 64.5557 99.6378 64.5953C102.124 67.5412 104.638 70.4651 107.068 73.4567C107.38 73.8411 107.425 74.6161 107.302 75.1412C107.137 75.8432 106.439 76.1545 105.753 75.9848C105.245 75.859 104.697 75.559 104.354 75.1711C102.843 73.462 101.411 71.6825 99.9272 69.9479C98.7661 68.5897 97.6428 67.1858 96.363 65.9456C95.6768 65.2806 94.6978 64.9173 93.7109 64.3358V78.7239C93.8771 78.7512 93.9941 78.7873 94.112 78.7873C103.601 78.7899 113.09 78.7961 122.579 78.782C123.821 78.7802 124.545 77.9842 124.549 76.6999C124.56 73.3001 124.558 69.9004 124.551 66.4997C124.548 64.9806 123.871 64.3174 122.333 64.3156C118.315 64.3112 114.297 64.3139 110.279 64.3139C106.727 64.3139 103.176 64.3139 99.534 64.3139H99.5349ZM84.8231 64.3587C84.4387 64.3323 84.3182 64.3165 84.1968 64.3165C77.4272 64.3156 70.6584 64.3112 63.8888 64.3182C62.5289 64.32 61.841 65.0132 61.8366 66.3775C61.8269 69.6849 61.8322 72.9923 61.8331 76.2997C61.8331 78.1944 62.4286 78.7917 64.3198 78.7917C72.6965 78.7926 81.0732 78.7917 89.4499 78.7917C89.7798 78.7917 90.1105 78.7917 90.4694 78.7917V64.2883C89.4086 64.9481 88.375 65.3421 87.6898 66.0661C86.1038 67.7426 84.707 69.5969 83.194 71.3456C81.9441 72.7908 80.6836 74.2334 79.3368 75.5863C78.6252 76.3006 77.6057 76.1572 77.0366 75.4649C76.4772 74.7858 76.6249 73.9836 77.2741 73.2315C79.7661 70.3437 82.2211 67.4242 84.8222 64.3596L84.8231 64.3587ZM55.5288 114.067C55.5288 110.082 55.5305 106.098 55.5279 102.113C55.5279 100.99 55.4136 100.873 54.3193 100.872C51.1685 100.869 48.0185 100.869 44.8677 100.872C43.7611 100.873 43.6573 100.979 43.6573 102.105C43.6555 110.074 43.6555 118.043 43.6573 126.012C43.6573 127.097 43.7831 127.216 44.9046 127.217C48.0238 127.22 51.1438 127.22 54.263 127.217C55.4083 127.216 55.5261 127.096 55.527 125.928C55.5297 121.974 55.527 118.021 55.527 114.067L55.5288 114.067ZM94.2659 61.1445C96.7825 60.8208 99.0845 60.6062 101.357 60.2121C104.18 59.7222 106.984 59.0871 109.508 57.6357C111.205 56.6602 112.606 55.3847 113.307 53.4926C114.456 50.3893 112.728 47.2701 109.547 46.7503C107.861 46.475 106.312 46.9966 104.842 47.7768C102.536 49.0004 100.707 50.7808 99.0713 52.7758C97.0658 55.222 95.4622 57.9031 94.2668 61.1454L94.2659 61.1445ZM89.859 61.1384C89.7253 60.7188 89.6743 60.513 89.5951 60.3195C88.2651 57.0587 86.4099 54.126 84.0121 51.5513C82.1455 49.5466 80.0784 47.8023 77.3867 46.986C74.2315 46.029 71.3577 47.4522 70.6655 50.3735C70.2054 52.3148 70.7912 54.0301 72.0711 55.522C73.1794 56.8141 74.5437 57.8055 76.1315 58.3456C78.2523 59.0669 80.4126 59.7266 82.6055 60.1646C84.948 60.6335 87.3476 60.8147 89.859 61.1384Z" fill="white"/>
</g>
<defs>
<linearGradient id="paint0_linear_2_1581" x1="282" y1="228.5" x2="-20" y2="-5.38485e-06" gradientUnits="userSpaceOnUse">
<stop stop-color="#E30615"/>
<stop offset="1" stop-color="#236FC7"/>
</linearGradient>
<clipPath id="clip0_2_1581">
<rect width="95" height="95" fill="white" transform="translate(40.5 40)"/>
</clipPath>
</defs>
</svg>
