<svg width="175" height="175" viewBox="0 0 175 175" fill="none" xmlns="http://www.w3.org/2000/svg">
<rect width="175" height="175" rx="87.5" fill="url(#paint0_linear_173_142)"/>
<g clip-path="url(#clip0_173_142)">
<path d="M40 128.88C40.7494 126.308 41.3942 123.699 42.2738 121.172C43.6065 117.345 45.5777 113.858 48.389 110.892C50.435 108.733 52.818 107.047 55.5483 105.866C56.6822 105.375 57.6946 105.705 58.1591 106.675C58.6235 107.646 58.2523 108.701 57.1422 109.199C51.261 111.835 47.8824 116.632 45.7633 122.459C44.9646 124.657 44.4096 126.947 43.8132 129.214C43.435 130.652 43.9988 131.292 45.4871 131.292C51.3323 131.292 57.1774 131.294 63.0217 131.292C64.6296 131.292 64.7044 131.192 65.3571 129.737C65.8998 128.527 66.5314 127.355 67.1533 126.183C67.5562 125.423 68.23 125.148 69.0823 125.162C72.7618 125.222 76.4492 125.123 80.119 125.329C87.3417 125.737 94.143 124.328 100.751 121.407C110.266 117.202 119.881 113.222 129.45 109.138C129.815 108.982 130.283 108.824 130.461 108.523C130.818 107.921 131.199 107.224 131.216 106.557C131.236 105.743 130.617 105.063 129.787 104.957C128.925 104.847 127.989 104.843 127.156 105.061C120.826 106.719 114.511 108.44 108.195 110.157C107.888 110.24 107.605 110.451 107.341 110.643C106.177 111.489 105.125 112.563 103.85 113.169C98.8543 115.548 93.6803 117.488 88.34 118.964C87.9583 119.069 87.5493 119.167 87.1605 119.143C86.2958 119.09 85.6123 118.386 85.4988 117.529C85.381 116.641 85.9395 115.831 86.923 115.518C88.8634 114.9 90.8426 114.385 92.7461 113.671C95.8662 112.501 98.944 111.218 102.027 109.951C102.65 109.695 103.244 109.34 103.795 108.951C104.491 108.458 104.953 107.817 104.582 106.89C104.224 105.995 103.566 105.447 102.601 105.504C101.432 105.573 100.268 105.759 99.1058 105.921C94.5159 106.562 89.9427 107.387 85.3326 107.798C82.3674 108.062 79.3476 107.741 76.3533 107.647C75.2424 107.612 74.134 107.486 73.0257 107.384C71.7511 107.267 71.0456 106.485 71.1512 105.335C71.2488 104.276 72.1188 103.605 73.3318 103.692C75.4288 103.843 77.5259 103.988 79.6194 104.178C83.3561 104.517 87.0162 103.888 90.6869 103.361C94.3567 102.834 98.0283 102.312 101.702 101.814C104.207 101.475 107.114 102.588 108.327 106.255C110.278 105.734 112.237 105.217 114.193 104.689C118.158 103.619 122.12 102.544 126.083 101.469C127.595 101.06 129.121 100.837 130.656 101.3C133.028 102.016 134.551 103.581 134.923 106.049C135.283 108.431 134.355 110.347 132.405 111.749C132.007 112.035 131.559 112.265 131.108 112.458C121.082 116.729 111.062 121.013 101.02 125.246C97.4618 126.746 93.8615 128.267 89.985 128.613C86.3292 128.94 82.64 128.926 78.965 128.978C76.1836 129.017 73.3995 128.932 70.6173 128.876C70.1238 128.866 69.8194 128.977 69.6206 129.465C69.3066 130.234 68.8844 130.961 68.5748 131.731C67.8244 133.598 66.3563 134.539 64.4942 135.003H43.8968C42.9696 134.398 41.929 133.908 41.155 133.148C40.5876 132.591 40.3721 131.676 40 130.921C40 130.241 40 129.56 40 128.881V128.88Z" fill="white"/>
<path d="M67.0917 69.6865V68.5703C67.0917 61.0881 67.09 53.6051 67.0917 46.123C67.0935 42.2817 69.3647 39.999 73.1867 39.9981C82.7403 39.9964 92.2949 39.9964 101.849 39.9981C105.623 39.9981 107.912 42.2878 107.914 46.0597C107.916 53.5726 107.914 61.0864 107.914 68.5993C107.914 68.9309 107.914 69.2634 107.914 69.6874C108.608 69.6874 109.218 69.6812 109.829 69.6883C111.619 69.7103 113.066 70.6453 113.688 72.2181C114.364 73.9263 113.987 75.4411 112.719 76.7271C108.962 80.5341 105.191 84.328 101.423 88.1244C97.8506 91.723 94.2784 95.3224 90.6992 98.9131C88.6462 100.973 86.3547 100.961 84.2938 98.8867C76.9937 91.5392 69.6972 84.1872 62.4007 76.8362C61.01 75.4358 60.6115 73.8085 61.3293 72.1935C62.1034 70.4509 63.5002 69.6549 65.3914 69.6848C65.9139 69.6927 66.4373 69.6856 67.0917 69.6856V69.6865ZM87.5959 43.7084C82.896 43.7084 78.1962 43.7084 73.4963 43.7084C71.3219 43.7084 70.8029 44.2212 70.8029 46.3702C70.8029 54.6264 70.8047 62.8817 70.8011 71.1379C70.8011 72.7186 70.1238 73.3871 68.5414 73.3968C67.6134 73.4021 66.6853 73.3748 65.7591 73.41C65.4213 73.4232 65.0897 73.5745 64.7546 73.6633C64.9314 73.9351 65.0677 74.2474 65.2911 74.4726C72.4284 81.6776 79.5816 88.8677 86.704 96.0868C87.332 96.7228 87.6812 96.7325 88.3102 96.0904C92.7488 91.5655 97.227 87.0794 101.692 82.5801C104.371 79.8806 107.052 77.1836 109.721 74.4735C109.944 74.2474 110.077 73.9334 110.252 73.6607C109.917 73.5727 109.584 73.4241 109.245 73.4091C108.412 73.3722 107.576 73.3977 106.741 73.3968C104.778 73.395 104.202 72.8206 104.202 70.8582C104.202 62.602 104.202 54.3467 104.201 46.0905C104.201 44.3233 103.576 43.7093 101.787 43.7084C97.0563 43.7067 92.3257 43.7084 87.5941 43.7084H87.5959Z" fill="white"/>
<path d="M62.7921 105.563C62.7798 104.542 63.5627 103.71 64.569 103.677C65.5788 103.645 66.4866 104.536 66.476 105.551C66.4663 106.547 65.6333 107.367 64.627 107.369C63.5979 107.373 62.8053 106.592 62.7921 105.562V105.563Z" fill="white"/>
<path d="M81.1112 77.6411C79.9395 77.6675 79.008 76.5328 79.2948 75.3866C79.3827 75.0348 79.5622 74.697 79.7451 74.3794C83.8495 67.2615 87.9609 60.147 92.0714 53.0326C92.1796 52.8452 92.2799 52.6517 92.4074 52.4784C92.9924 51.6806 93.9582 51.4431 94.7877 51.8838C95.6453 52.3394 95.9972 53.3369 95.6145 54.2702C95.5213 54.4972 95.3876 54.7092 95.2636 54.9229C91.1548 62.0382 87.0408 69.1509 82.9426 76.2724C82.5177 77.0113 82.0207 77.5848 81.1103 77.642L81.1112 77.6411Z" fill="white"/>
<path d="M80.1207 51.6744C83.1801 51.6876 85.6518 54.1778 85.6448 57.2398C85.6377 60.2824 83.1282 62.7929 80.0873 62.7973C77.0156 62.8017 74.4884 60.2446 74.5166 57.1606C74.5447 54.1092 77.0438 51.662 80.1198 51.6744H80.1207ZM80.0996 55.3899C79.0555 55.3811 78.2163 56.2176 78.233 57.2512C78.2489 58.2294 79.0889 59.0685 80.0635 59.08C81.0742 59.0914 81.9459 58.2118 81.9301 57.1958C81.9152 56.1965 81.1068 55.3978 80.0996 55.389V55.3899Z" fill="white"/>
<path d="M100.49 72.0607C100.494 75.106 97.9993 77.6226 94.9576 77.642C91.8885 77.6613 89.3455 75.1104 89.3631 72.029C89.3807 68.9741 91.8718 66.5138 94.9426 66.5191C98.0072 66.5243 100.488 69.0014 100.491 72.0607H100.49ZM94.9118 73.9255C95.8865 73.9343 96.7397 73.111 96.774 72.1302C96.8092 71.0958 95.9841 70.2425 94.9409 70.2355C93.9328 70.2284 93.1112 71.0104 93.0778 72.0088C93.0435 73.0204 93.902 73.9167 94.9118 73.9264V73.9255Z" fill="white"/>
</g>
<defs>
<linearGradient id="paint0_linear_173_142" x1="347.5" y1="303" x2="-61.5" y2="-53.5" gradientUnits="userSpaceOnUse">
<stop stop-color="#E30615"/>
<stop offset="1" stop-color="#236FC7"/>
</linearGradient>
<clipPath id="clip0_173_142">
<rect width="95" height="95" fill="white" transform="translate(40 40)"/>
</clipPath>
</defs>
</svg>
