<svg width="175" height="175" viewBox="0 0 175 175" fill="none" xmlns="http://www.w3.org/2000/svg">
<rect width="175" height="175" rx="87.5" fill="url(#paint0_linear_173_148)"/>
<g clip-path="url(#clip0_173_148)">
<path d="M104.643 39.9999C105.201 40.1538 105.763 40.2937 106.316 40.4643C110.384 41.7178 113.234 45.4518 113.38 49.7137C113.395 50.1148 113.398 50.5168 113.398 50.9187C113.398 75.3364 113.387 99.7549 113.41 124.173C113.414 128.727 111.573 132.138 107.404 134.052C106.154 134.626 104.67 134.934 103.289 134.944C92.7787 135.016 82.268 135.009 71.7573 134.974C66.0177 134.954 61.6081 130.523 61.6037 124.769C61.5844 99.9185 61.587 75.0672 61.6029 50.2168C61.6064 45.1229 64.949 41.1751 70.0007 40.1574C70.1115 40.1354 70.2109 40.0527 70.3156 39.999C81.7578 39.999 93.2 39.999 104.642 39.999L104.643 39.9999ZM109.096 87.4806C109.096 75.2695 109.096 63.0576 109.096 50.8466C109.096 46.62 106.784 44.3022 102.567 44.3013C92.5183 44.3004 82.4685 44.3004 72.4197 44.3013C68.2634 44.3013 65.8981 46.6481 65.8981 50.7754C65.8972 75.2599 65.8972 99.7452 65.8981 124.23C65.8981 128.306 68.274 130.683 72.3484 130.684C82.4281 130.687 92.5086 130.686 102.588 130.684C106.752 130.684 109.095 128.35 109.095 124.209C109.095 111.966 109.095 99.7241 109.095 87.4814L109.096 87.4806Z" fill="white"/>
<path d="M87.5731 48.6493C89.7062 48.6493 91.8393 48.637 93.9724 48.6546C94.9294 48.6625 95.6287 49.1243 95.9779 50.0286C96.2964 50.8528 96.1855 51.6788 95.5205 52.24C95.0825 52.6094 94.4359 52.9234 93.8783 52.9305C89.6437 52.9868 85.4083 52.9745 81.1729 52.9534C79.8271 52.9472 78.87 52.0042 78.8691 50.793C78.8691 49.5738 79.7919 48.6731 81.1738 48.6511C83.306 48.6177 85.44 48.6423 87.5731 48.6423C87.5731 48.644 87.5731 48.6467 87.5731 48.6484V48.6493Z" fill="white"/>
<path d="M87.5386 117.727C89.911 117.74 91.833 119.673 91.8268 122.04C91.8207 124.407 89.8978 126.323 87.5184 126.334C85.1056 126.344 83.1396 124.367 83.1818 121.974C83.224 119.6 85.1592 117.713 87.5386 117.727Z" fill="white"/>
</g>
<defs>
<linearGradient id="paint0_linear_173_148" x1="240.5" y1="231" x2="-33" y2="-21" gradientUnits="userSpaceOnUse">
<stop stop-color="#E30615"/>
<stop offset="1" stop-color="#236FC7"/>
</linearGradient>
<clipPath id="clip0_173_148">
<rect width="95" height="95" fill="white" transform="translate(40 40)"/>
</clipPath>
</defs>
</svg>
